<svg width="156" height="192" viewBox="0 0 156 192" fill="none" xmlns="http://www.w3.org/2000/svg">
<g clip-path="url(#clip0_1_387)">
<path d="M75.19 0.000234375C71.63 0.000234375 68.63 2.65023 68.17 6.18023L65.19 27.5102H56.74C53.36 27.5102 50.44 29.9002 49.78 33.2102L46.8 48.1002H37.03C33.59 48.1002 30.64 50.5802 30.06 53.9702L24.93 83.2702L69.84 61.6502C74.34 59.4802 79.6 59.4802 84.11 61.6502L130.15 83.8302L125 53.9702C124.41 50.5702 121.47 48.0802 118.02 48.0802H108.26L105.28 33.1902C104.62 29.8702 101.71 27.4802 98.32 27.4902H89.9L86.92 6.17023C86.46 2.64023 83.45 -0.00976562 79.9 -0.00976562H75.2L75.19 0.000234375Z" fill="#133D60"/>
<path d="M0.900011 123.55L18.67 187.46C25.81 182.6 34.29 180.07 42.93 180.21C52.09 180.11 61.05 182.94 68.48 188.33C71.94 190.57 73.36 191.52 77.42 191.52H77.54C81.66 191.52 83.08 190.57 86.5 188.35C93.92 182.96 102.89 180.12 112.07 180.23C120.7 180.09 129.17 182.62 136.31 187.48L154.18 123.55C156.38 118.93 154.42 113.41 149.82 111.2L81.17 78.2498C78.88 77.1498 76.21 77.1498 73.91 78.2498L5.26001 111.2C0.660012 113.41 -1.28999 118.94 0.900011 123.55Z" fill="#133D60"/>
<path d="M78.74 107.38L85.53 120.96C85.73 121.35 86.1 121.62 86.53 121.69L101.54 123.95C102.64 124.11 103.07 125.46 102.28 126.24L91.46 136.9C91.15 137.21 91 137.65 91.08 138.08L93.57 153.06C93.75 154.15 92.61 154.99 91.62 154.47L78.14 147.48C77.75 147.28 77.29 147.28 76.9 147.48L63.42 154.47C62.44 154.98 61.29 154.15 61.47 153.06L63.96 138.08C64.03 137.65 63.89 137.21 63.58 136.9L52.76 126.24C51.97 125.46 52.41 124.12 53.5 123.95L68.51 121.69C68.94 121.62 69.32 121.35 69.51 120.96L76.3 107.38C76.8 106.39 78.21 106.39 78.71 107.38" fill="#FDC200"/>
</g>
<defs>
<clipPath id="clip0_1_387">
<rect width="155.08" height="191.52" fill="white"/>
</clipPath>
</defs>
</svg>
